<svg width="749" height="292" viewBox="0 0 749 292" fill="none" xmlns="http://www.w3.org/2000/svg">
<path d="M233.074 291.574H165.757L161.55 227.618H88.7765L67.3172 291.574H0L118.228 0H196.476L233.074 291.574ZM149.773 45.0318L104.761 179.666H158.61L149.773 45.0318ZM316.395 165.354L298.298 291.574H233.497L274.744 0H339.526L323.542 114.02H396.334L412.318 0H477.099L436.294 291.574H371.513L389.168 165.354H316.395ZM748.482 0L727.022 291.574H664.335L675.689 175.862C678.776 140.808 684.245 99.4389 692.096 51.7559L626.046 260.432H564.205L551.583 52.6012C548.778 95.238 543.866 136.889 536.847 177.553L517.924 291.574H454.814L514.965 0H593.656L602.916 203.642L664.335 0H748.482Z" fill="#F97316"/>
</svg>
